<svg width="39" height="56" viewBox="0 0 39 56" fill="none" xmlns="http://www.w3.org/2000/svg">
<g clip-path="url(#clip0_316_27324)">
<path d="M38.2813 31.2927C38.0909 29.924 37.1985 28.8388 35.8958 28.3856L35.3785 28.2053C35.0101 28.0954 34.6468 27.9707 34.2984 27.8291L21.9349 23.5235C21.7895 23.4735 21.646 23.4164 21.5087 23.3542C20.2917 22.8106 19.4451 21.8662 19.1232 20.695C18.7779 19.4326 19.0736 18.0522 19.9558 16.8074L31.8632 0L1.54188 21.2088C0.409366 22.0011 -0.153372 23.2912 0.0362932 24.6603C0.225958 26.0294 1.11797 27.117 2.42451 27.5698L2.57702 27.6234C3.2166 27.7917 3.8421 28.0095 4.44786 28.2749L16.4562 32.4581C16.5985 32.507 16.7409 32.5633 16.8774 32.6251C18.0943 33.1663 18.9437 34.1111 19.2656 35.2843C19.6124 36.547 19.3172 37.9287 18.4346 39.1746L6.51383 56L36.782 34.7435C37.9114 33.95 38.4722 32.6603 38.2813 31.2927Z" fill="#0FAE79"/>
<path d="M29.1439 7.75827C30.3049 5.42755 31.3158 2.91302 32.8253 0.781738L21.1001 17.3338C20.4134 18.3017 20.1788 19.3489 20.433 20.2836C20.6641 21.1275 21.2906 21.8154 22.2006 22.2217C22.3073 22.2702 22.42 22.3148 22.5349 22.3546L31.9282 25.6267C28.865 23.3538 26.8804 19.7095 26.8804 15.6034C26.8804 13.2941 27.6109 11.0745 28.5592 8.98503C28.7469 8.57051 28.9433 8.16185 29.1439 7.75827Z" fill="#0FAE79"/>
<path d="M9.23647 48.1639C8.10474 50.533 7.06217 53.0858 5.54016 55.2347L17.2912 38.6474C17.9775 37.6788 18.2141 36.6307 17.956 35.6957C17.7237 34.8506 17.0956 34.1624 16.1856 33.758C16.0777 33.7092 15.9681 33.6658 15.8568 33.6278L6.49161 30.3663C9.51843 32.6419 11.4769 36.2616 11.4769 40.3384C11.4769 42.4587 10.8461 44.4903 10.0229 46.4292C9.77653 47.0169 9.50826 47.5949 9.23647 48.1639Z" fill="#0FAE79"/>
</g>
<defs>
<clipPath id="clip0_316_27324">
<rect width="38.3182" height="56" fill="white"/>
</clipPath>
</defs>
</svg>
